<svg width="452" height="452" viewBox="0 0 452 452" fill="none" xmlns="http://www.w3.org/2000/svg">
<g filter="url(#filter0_ii_105_23)">
<circle cx="224.049" cy="245.049" r="23.0488" fill="#C4C4C4"/>
<circle cx="224.049" cy="245.049" r="23.0488" fill="url(#paint0_linear_105_23)"/>
</g>
<path d="M224 251.401C223.642 251.401 223.283 251.264 223.01 250.991L214.41 242.391C213.863 241.844 213.863 240.957 214.41 240.41C214.957 239.863 215.844 239.863 216.391 240.41L224 248.02L231.609 240.41C232.156 239.864 233.043 239.864 233.59 240.41C234.137 240.957 234.137 241.844 233.59 242.391L224.99 250.991C224.717 251.264 224.358 251.401 224 251.401Z" fill="white"/>
<defs>
<filter id="filter0_ii_105_23" x="201" y="216" width="46.0976" height="58.0975" filterUnits="userSpaceOnUse" color-interpolation-filters="sRGB">
<feFlood flood-opacity="0" result="BackgroundImageFix"/>
<feBlend mode="normal" in="SourceGraphic" in2="BackgroundImageFix" result="shape"/>
<feColorMatrix in="SourceAlpha" type="matrix" values="0 0 0 0 0 0 0 0 0 0 0 0 0 0 0 0 0 0 127 0" result="hardAlpha"/>
<feOffset dy="6"/>
<feGaussianBlur stdDeviation="5"/>
<feComposite in2="hardAlpha" operator="arithmetic" k2="-1" k3="1"/>
<feColorMatrix type="matrix" values="0 0 0 0 1 0 0 0 0 0.8875 0 0 0 0 0.7375 0 0 0 0.5 0"/>
<feBlend mode="normal" in2="shape" result="effect1_innerShadow_105_23"/>
<feColorMatrix in="SourceAlpha" type="matrix" values="0 0 0 0 0 0 0 0 0 0 0 0 0 0 0 0 0 0 127 0" result="hardAlpha"/>
<feOffset dy="-6"/>
<feGaussianBlur stdDeviation="5"/>
<feComposite in2="hardAlpha" operator="arithmetic" k2="-1" k3="1"/>
<feColorMatrix type="matrix" values="0 0 0 0 1 0 0 0 0 0.866351 0 0 0 0 0.695833 0 0 0 0.5 0"/>
<feBlend mode="normal" in2="effect1_innerShadow_105_23" result="effect2_innerShadow_105_23"/>
</filter>
<linearGradient id="paint0_linear_105_23" x1="224.049" y1="222" x2="224.049" y2="268.098" gradientUnits="userSpaceOnUse">
<stop stop-color="#FFE096"/>
<stop offset="1" stop-color="#FFB400"/>
</linearGradient>
</defs>
</svg>
