<svg width="52" height="52" viewBox="0 0 52 52" fill="none" xmlns="http://www.w3.org/2000/svg">
<path d="M18.5363 29.3111C18.4622 29.3111 18.3873 29.3004 18.3128 29.2789C17.8828 29.1566 17.6341 28.7088 17.7564 28.2788L21.5932 14.8329C21.717 14.4011 22.1677 14.1538 22.594 14.2765C23.0243 14.3989 23.2734 14.847 23.1511 15.2773L19.314 28.7229C19.212 29.0783 18.8877 29.3111 18.5363 29.3111Z" fill="#FFB400"/>
<path d="M33.1101 29.311C32.7609 29.311 32.4385 29.0823 32.3336 28.7309L28.35 15.2847C28.2232 14.8554 28.4675 14.4051 28.896 14.2779C29.3271 14.1523 29.7756 14.3958 29.9031 14.8239L33.8867 28.2702C34.0131 28.6994 33.7692 29.1498 33.3403 29.2769C33.2639 29.2999 33.1861 29.311 33.1101 29.311Z" fill="#FFB400"/>
<path d="M30.6315 22.8325H21.0672C20.8837 22.8325 20.7058 22.7706 20.5627 22.6557L15.2292 18.4042C14.8793 18.1258 14.8222 17.6162 15.1002 17.2663C15.3775 16.9175 15.8886 16.8589 16.2381 17.1384L21.3504 21.2127H30.3601L35.8382 17.075C36.1948 16.8051 36.7026 16.8752 36.9725 17.2329C37.2419 17.5895 37.1708 18.0973 36.8138 18.3668L31.1193 22.6691C30.9784 22.7751 30.8079 22.8325 30.6315 22.8325Z" fill="#FFB400"/>
<path d="M25.8154 30.9298C24.0492 30.9298 22.6125 29.4582 22.6125 27.6498C22.6125 25.8417 24.0492 24.3701 25.8154 24.3701C27.582 24.3701 29.0198 25.8417 29.0198 27.6498C29.0198 29.4582 27.582 30.9298 25.8154 30.9298ZM25.8154 25.9892C24.9432 25.9892 24.2319 26.7342 24.2319 27.6494C24.2319 28.5649 24.9432 29.31 25.8154 29.31C26.6894 29.31 27.4004 28.5649 27.4004 27.6494C27.4004 26.7342 26.6894 25.9892 25.8154 25.9892Z" fill="#FFB400"/>
<path d="M27.9335 50.3631C26.903 50.3631 26.0649 49.5251 26.0649 48.495V43.2026C26.0649 43.0655 25.9537 42.9539 25.8158 42.9539C25.6794 42.9539 25.5675 43.0655 25.5675 43.2026V48.495C25.5675 49.5251 24.7294 50.3631 23.699 50.3631C22.6696 50.3631 21.8315 49.5251 21.8315 48.495V35.7882H21.0687C18.7791 35.7882 16.9158 33.9252 16.9158 31.6352V28.0957C16.9158 26.9797 17.8235 26.0715 18.9404 26.0715C20.0568 26.0715 20.9646 26.9797 20.9646 28.0957V31.7398H30.6816V28.0957C30.6816 26.9797 31.589 26.0715 32.7058 26.0715C33.8222 26.0715 34.73 26.9797 34.73 28.0957V31.6352C34.73 33.9248 32.867 35.7882 30.5767 35.7882H29.8012V48.495C29.8012 49.5251 28.9628 50.3631 27.9335 50.3631ZM25.8155 41.3344C26.8459 41.3344 27.684 42.1725 27.684 43.2026V48.495C27.684 48.6321 27.7959 48.7441 27.9335 48.7441C28.0702 48.7441 28.1818 48.6321 28.1818 48.495V34.9786C28.1818 34.5312 28.5436 34.1691 28.9913 34.1691H30.5767C31.9741 34.1691 33.1102 33.0326 33.1102 31.6356V28.0961C33.1102 27.8722 32.9285 27.6913 32.7058 27.6913C32.4823 27.6913 32.3006 27.8722 32.3006 28.0961V31.8395C32.3006 32.6775 31.6194 33.3592 30.7805 33.3592H20.8648C20.0268 33.3592 19.3451 32.6775 19.3451 31.8395V28.0961C19.3451 27.8722 19.1631 27.6913 18.9404 27.6913C18.7168 27.6913 18.5352 27.8722 18.5352 28.0961V31.6356C18.5352 33.0319 19.6713 34.1691 21.0687 34.1691H22.6407C23.0885 34.1691 23.4506 34.5312 23.4506 34.9786V48.495C23.4506 48.6321 23.5626 48.7441 23.699 48.7441C23.8368 48.7441 23.9484 48.6321 23.9484 48.495V43.2026C23.948 42.1725 24.7861 41.3344 25.8155 41.3344Z" fill="#FFB400"/>
<path d="M45.9277 21.7835C45.8335 21.7835 45.7387 21.7675 45.6478 21.7342L27.1176 14.9069C26.2773 14.5974 25.3532 14.5974 24.5151 14.9069L5.98447 21.7342C5.73501 21.8239 5.45813 21.7898 5.24129 21.6382C5.02519 21.4869 4.89471 21.2386 4.89471 20.9743V15.6816C4.89471 15.4243 5.01778 15.1823 5.22461 15.0296L21.4935 3.04153C24.0785 1.13632 27.5542 1.13743 30.1377 3.04153L46.4077 15.0296C46.6145 15.1823 46.7376 15.424 46.7376 15.6816V20.9743C46.7376 21.2393 46.6079 21.4869 46.391 21.6382C46.2531 21.7345 46.0912 21.7835 45.9277 21.7835ZM6.51415 16.0908V19.813L23.9547 13.3872C25.1553 12.9453 26.4767 12.9453 27.6773 13.3872L45.1178 19.813V16.0908L29.1777 4.3459C27.1661 2.86399 24.4651 2.86399 22.4531 4.3459L6.51415 16.0908Z" fill="#FFB400"/>
</svg>
