<svg width="18" height="19" viewBox="0 0 18 19" fill="none" xmlns="http://www.w3.org/2000/svg">
<path d="M17.51 13.461L14.9981 10.9162C14.1009 10.0074 12.5758 10.371 12.217 11.5524C11.9478 12.3704 11.0507 12.8248 10.2433 12.643C8.44903 12.1886 6.02679 9.82562 5.57822 7.91706C5.30908 7.09908 5.84736 6.19024 6.65477 5.91763C7.82104 5.5541 8.17989 4.00908 7.28276 3.10024L4.77081 0.555507C4.05311 -0.0806768 2.97656 -0.0806768 2.34857 0.555507L0.644028 2.28229C-1.06051 4.09996 0.823453 8.91678 5.03995 13.1883C9.25644 17.4598 14.0112 19.4593 15.8055 17.6416L17.51 15.9148C18.138 15.1877 18.138 14.0971 17.51 13.461Z" fill="#FFB400"/>
</svg>
