<svg width="14" height="19" viewBox="0 0 14 19" fill="none" xmlns="http://www.w3.org/2000/svg">
<path d="M6.99975 0.0651855C3.4052 0.0651855 0.480835 3.02772 0.480835 6.66914C0.480835 11.1883 6.31463 17.8226 6.56301 18.1028C6.7963 18.3661 7.20362 18.3656 7.4365 18.1028C7.68488 17.8226 13.5187 11.1883 13.5187 6.66914C13.5186 3.02772 10.5943 0.0651855 6.99975 0.0651855ZM6.99975 9.99178C5.19125 9.99178 3.71996 8.50125 3.71996 6.66914C3.71996 4.83703 5.19128 3.34654 6.99975 3.34654C8.80823 3.34654 10.2795 4.83707 10.2795 6.66918C10.2795 8.50129 8.80823 9.99178 6.99975 9.99178Z" fill="#FFB400"/>
</svg>
